<?xml version="1.0" encoding="utf-8"?>
<!-- Generator: Adobe Illustrator 15.0.0, SVG Export Plug-In . SVG Version: 6.00 Build 0)  -->
<!DOCTYPE svg PUBLIC "-//W3C//DTD SVG 1.1//EN" "http://www.w3.org/Graphics/SVG/1.1/DTD/svg11.dtd">
<svg version="1.1" id="Layer_1" xmlns="http://www.w3.org/2000/svg" xmlns:xlink="http://www.w3.org/1999/xlink" x="0px" y="0px"
	 width="96px" height="44px" viewBox="0 0 96 44" enable-background="new 0 0 96 44" xml:space="preserve">
<g>
	<path fill="#C30580" d="M3.107,40.603c-1.477-1.35-2.215-3.269-2.215-5.758c0-0.97,0.063-2.046,0.19-3.227
		c0.084-1.013,0.496-2.405,1.234-4.177c0.738-1.771,1.75-3.501,3.037-5.188c1.287-1.687,2.794-2.932,4.524-3.733
		c0.801-0.379,1.476-0.643,2.025-0.791c0.547-0.146,1.18-0.221,1.898-0.221c1.729,0,3.132,0.316,4.208,0.949
		c1.076,0.632,1.835,1.35,2.278,2.151s0.665,1.497,0.665,2.088v0.316v0.189c0,0.506-0.296,1.435-0.886,2.784
		c-0.591,1.351-1.529,2.616-2.815,3.797c-1.288,1.181-2.942,1.835-4.967,1.961c-1.012,0-1.993-0.095-2.942-0.284
		c-0.949-0.19-1.55-0.285-1.803-0.285c-0.633,0-1.034,0.232-1.202,0.696c-0.169,0.465-0.253,1.244-0.253,2.341
		c0.126,1.182,0.453,2.004,0.98,2.468c0.527,0.465,1.297,0.696,2.31,0.696c0.506,0,1.097-0.147,1.772-0.443
		c0.674-0.337,1.476-0.864,2.404-1.582c0.506-0.421,0.907-0.717,1.202-0.886c0.294-0.168,0.653-0.253,1.076-0.253
		c0.38,0,0.823,0.253,1.329,0.76c0.506,0.506,0.78,0.991,0.823,1.455c-0.085,0.506-0.549,1.266-1.392,2.278
		c-0.844,1.012-1.941,1.92-3.29,2.721c-1.351,0.802-2.806,1.202-4.366,1.202C6.524,42.628,4.583,41.953,3.107,40.603z
		 M12.788,27.125c0.421-0.21,1.065-0.748,1.93-1.613c0.864-0.864,1.318-1.465,1.36-1.804c0-0.421-0.18-0.769-0.538-1.044
		c-0.359-0.273-0.854-0.452-1.487-0.537h-0.696c-0.549,0-1.339,0.453-2.373,1.36c-1.034,0.907-1.93,1.951-2.689,3.132
		c0.042,0.212,0.358,0.391,0.949,0.538c0.59,0.148,1.223,0.221,1.898,0.221C11.944,27.378,12.492,27.294,12.788,27.125z"/>
	<path fill="#C30580" d="M25.063,43.387c-0.886,0-1.625-0.506-2.215-1.519c-0.591-1.012-0.886-2.299-0.886-3.859
		c0-0.844,0.084-1.666,0.253-2.468c0.464-1.223,0.696-2.109,0.696-2.657c0.126-0.802,0.559-2.247,1.297-4.335
		c0.738-2.088,1.212-3.343,1.424-3.765c0.168,0,0.316-0.137,0.443-0.411s0.19-0.58,0.19-0.918c0-0.38,0.073-0.769,0.221-1.17
		c0.147-0.4,0.306-0.686,0.475-0.854c0-0.127,0.053-0.358,0.158-0.696c0.105-0.337,0.158-0.569,0.158-0.696
		c0-0.084,0.053-0.242,0.158-0.475c0.105-0.23,0.158-0.411,0.158-0.537c0.674-1.308,1.856-4.25,3.543-8.827
		c1.687-4.576,2.531-7.118,2.531-7.625c0-0.337,0.126-0.653,0.379-0.949c0.253-0.294,0.548-0.442,0.886-0.442
		c0.127-0.127,0.4-0.222,0.823-0.285c0.421-0.063,0.759-0.095,1.012-0.095l1.013,1.013c0.463,0.422,0.822,0.802,1.076,1.139
		c0.253,0.338,0.379,0.738,0.379,1.202c0,0.76-0.137,1.509-0.411,2.246c-0.275,0.739-1.066,2.479-2.373,5.221
		c-0.085,0.211-0.422,0.971-1.012,2.277c-0.422,0.845-0.633,1.329-0.633,1.456c0,0.126-0.085,0.391-0.253,0.791
		c-0.169,0.401-0.316,0.812-0.443,1.233c-0.338,0.676-0.876,1.866-1.614,3.575c-0.738,1.708-1.107,2.647-1.107,2.815
		c0,0.465-0.105,0.802-0.316,1.013c-0.127,0-0.212,0.095-0.253,0.284c-0.042,0.19-0.063,0.328-0.063,0.412
		c0,0.422-0.338,1.54-1.013,3.354l-0.569,1.835c-0.802,2.742-1.36,4.745-1.677,6.011s-0.475,2.342-0.475,3.228
		c0,0.928-0.148,1.688-0.443,2.277c-0.296,0.591-0.633,0.97-1.013,1.139C25.442,43.365,25.273,43.387,25.063,43.387z"/>
	<path fill="#C30580" d="M36.041,40.982c-0.739-1.054-1.192-2.362-1.361-3.923c0.168-1.561,0.295-2.699,0.38-3.417
		c0.464-2.066,1.044-4.502,1.74-7.309c0.696-2.805,1.107-4.354,1.234-4.65c0.21-0.38,0.547-0.569,1.012-0.569
		c0.464,0,0.981,0.18,1.55,0.538s1.044,0.854,1.424,1.486c0.337,0.465,0.506,0.992,0.506,1.582c0,0.886-0.422,2.743-1.265,5.568
		c-0.591,2.109-0.971,3.606-1.139,4.492c-0.169,0.886-0.232,1.835-0.19,2.848c-0.169,1.898-0.338,3.206-0.506,3.923
		c-0.169,0.718-0.422,1.055-0.76,1.013C37.654,42.564,36.778,42.037,36.041,40.982z M44.108,16.495c-0.169,0-0.443-0.127-0.823-0.38
		c-0.422-0.041-0.98-0.4-1.677-1.075c-0.696-0.675-1.044-1.117-1.044-1.329c-0.042-0.506,0-1.233,0.126-2.183
		s0.369-1.804,0.728-2.563c0.357-0.759,0.832-1.159,1.423-1.202c0.295,0.043,0.696,0.138,1.202,0.285
		c0.506,0.148,1.076,0.348,1.708,0.602c0.801,1.604,1.202,2.974,1.202,4.112c0,1.688-0.822,2.869-2.467,3.544
		C44.361,16.432,44.235,16.495,44.108,16.495z"/>
	<path fill="#C30580" d="M66.698,33.01c-0.085,0.38-0.264,1.192-0.538,2.437c-0.275,1.244-0.433,2.183-0.475,2.815
		c0,0.465,0.095,0.939,0.285,1.424c0.19,0.485,0.285,0.771,0.285,0.854c0,0.422-0.19,0.833-0.569,1.233
		c-0.38,0.401-0.865,0.602-1.456,0.602c-1.055,0-1.961-0.453-2.721-1.36s-1.139-2.099-1.139-3.575c0-1.266,0.464-3.628,1.392-7.087
		c0.084-0.464,0.158-0.812,0.222-1.044c0.063-0.231,0.095-0.433,0.095-0.602c0-0.211-0.063-0.316-0.19-0.316
		c-0.295,0-0.718,0.201-1.265,0.602c-0.549,0.401-1.139,0.854-1.772,1.36l-1.582,1.328c-0.675,0.423-2.088,1.582-4.24,3.48
		c-0.295,0.212-1.002,0.791-2.12,1.74c-1.118,0.949-1.762,1.424-1.93,1.424c-0.169,0-0.538-0.137-1.107-0.411
		c-0.57-0.274-1.098-0.622-1.582-1.044c-0.485-0.422-0.728-0.907-0.728-1.456c0-0.633,0.379-2.088,1.139-4.366
		c0.759-2.277,1.666-4.513,2.721-6.707c0.126-0.337,0.274-0.97,0.443-1.897c0.168-1.519,0.443-2.468,0.822-2.848
		c0.253-0.421,0.611-0.633,1.076-0.633c0.844,0,1.634,0.422,2.373,1.266c0.737,0.844,1.107,1.771,1.107,2.784
		c0,0.718-0.201,1.655-0.601,2.815c-0.401,1.161-0.687,1.846-0.854,2.057c0.126-0.084,0.39-0.306,0.791-0.665
		c0.4-0.357,0.938-0.748,1.614-1.17c1.434-1.097,2.509-1.845,3.227-2.246c0.717-0.4,1.223-0.706,1.519-0.918
		c0.168-0.126,0.305-0.222,0.411-0.284c0.105-0.063,0.179-0.096,0.221-0.096c0.127-0.041,0.369-0.136,0.728-0.284
		C62.658,22.074,62.943,22,63.154,22c0.633,0,1.297,0.222,1.993,0.664c0.696,0.443,1.044,0.897,1.044,1.36
		c0,0.127,0.147,0.349,0.443,0.665c0.295,0.316,0.548,0.695,0.76,1.139c0.21,0.443,0.316,1.107,0.316,1.993
		C67.71,28.496,67.372,30.226,66.698,33.01z"/>
	<path fill="#C30580" d="M85.332,42.501c-0.359-0.337-0.623-0.633-0.791-0.886L82.2,39.147c-0.338-0.674-1.012-1.519-2.024-2.531
		c-0.422-0.548-0.791-1.012-1.107-1.392s-0.538-0.569-0.665-0.569l-1.961,6.264c-0.296,0.549-0.591,0.897-0.886,1.044
		c-0.296,0.148-0.655,0.222-1.076,0.222c-0.591,0-1.213-0.231-1.867-0.696c-0.655-0.463-0.981-1.054-0.981-1.771
		c-0.338-1.223,0.78-5.04,3.354-11.452c0.127-0.591,0.337-1.275,0.633-2.057c0.295-0.78,0.506-1.339,0.633-1.677
		c0.674-2.151,1.835-5.146,3.48-8.985l1.139-2.595c0.717-1.476,1.497-3.015,2.341-4.618c2.235-4.134,3.648-6.538,4.239-7.214
		c0.337-0.337,0.927-0.506,1.772-0.506c0.801,0,1.37,0.169,1.708,0.506c0.295,0.296,0.516,0.56,0.665,0.791
		c0.147,0.232,0.222,0.496,0.222,0.791c0,0.675-0.422,1.688-1.266,3.037c-0.465,0.971-0.886,1.771-1.266,2.404
		c-0.338,0.465-0.738,1.139-1.202,2.025c-0.295,0.844-0.612,1.265-0.949,1.265c-0.042,0.212-0.117,0.486-0.221,0.823
		c-0.106,0.338-0.243,0.675-0.412,1.012c-0.126,0.423-0.338,0.929-0.633,1.52c-0.295,0.591-0.485,1.012-0.569,1.265
		c-0.085,0.212-0.19,0.443-0.316,0.696s-0.275,0.569-0.443,0.949c-0.971,1.898-1.519,3.206-1.645,3.923
		c0,0.043,0.021,0.063,0.063,0.063c0.084,0,0.253-0.084,0.506-0.253c0.253-0.168,0.464-0.316,0.633-0.443
		c1.012-0.843,2.077-1.582,3.195-2.214c1.117-0.633,2.035-1.013,2.752-1.14c0.59-0.126,1.076-0.189,1.456-0.189
		c0.547,0,1.054,0.085,1.519,0.253c0.463,0.253,0.886,0.781,1.266,1.582c0.379,0.802,0.653,1.624,0.822,2.468
		c0,0.633-0.391,1.825-1.17,3.575c-0.781,1.751-1.445,2.858-1.993,3.321c-0.296,0.127-0.517,0.243-0.665,0.349
		c-0.148,0.105-0.243,0.18-0.285,0.221c0,0.17-0.085,0.391-0.253,0.665c-0.169,0.274-0.401,0.475-0.696,0.601
		c-0.591,0.592-0.886,0.992-0.886,1.202v0.316h-0.126c-0.169,0-0.549,0.19-1.139,0.57c-0.464,0.464-0.833,0.738-1.107,0.822
		c-0.274,0.085-0.496,0.148-0.664,0.189c-0.085,0.085-0.264,0.181-0.538,0.285c-0.275,0.105-0.411,0.222-0.411,0.348
		c0,0.296,0.579,1.107,1.74,2.437c1.16,1.328,1.993,2.162,2.499,2.499c0.59,0.296,0.886,0.949,0.886,1.962
		c0,0.549-0.106,1.097-0.316,1.645c-0.127,0.127-0.454,0.264-0.981,0.411c-0.528,0.147-1.066,0.222-1.613,0.222
		c-0.549,0-0.992-0.085-1.329-0.253C85.933,43.049,85.69,42.838,85.332,42.501z M85.617,28.391c1.519-1.307,2.488-2.235,2.911-2.784
		c0.337-0.337,0.653-0.843,0.949-1.519c0.294-0.674,0.358-1.202,0.19-1.582c-0.042-0.126-0.549,0.085-1.519,0.633l-1.708,0.949
		c-1.688,0.971-3.069,1.835-4.145,2.595c-1.076,0.759-1.889,1.604-2.436,2.53c-0.127,0.423,0.021,0.854,0.443,1.298
		c0.421,0.442,0.906,0.664,1.455,0.664c0.295,0,0.506-0.041,0.633-0.127C83.022,30.585,84.098,29.699,85.617,28.391z"/>
</g>
</svg>
